<svg width="26" height="26" viewBox="0 0 26 26" fill="none" xmlns="http://www.w3.org/2000/svg">
<path d="M19.9607 1.57143H6.03209C3.72517 1.57143 1.85352 3.44308 1.85352 5.75V19.6786C1.85352 21.9855 3.72517 23.8571 6.03209 23.8571H13.7508V15.2243H10.8491V11.8583H13.7508V9.37723C13.7508 6.50446 15.5209 4.9375 18.089 4.9375C19.3078 4.9375 20.3669 5.02455 20.6716 5.06808V8.07143L18.9015 8.08594C17.4941 8.08594 17.233 8.73884 17.233 9.71094V11.8583H20.5555L20.1203 15.2243H17.233V23.8571H19.9607C22.2676 23.8571 24.1392 21.9855 24.1392 19.6786V5.75C24.1392 3.44308 22.2676 1.57143 19.9607 1.57143Z" fill="#414142"/>
</svg>
