<svg width="26" height="26" viewBox="0 0 26 26" fill="none" xmlns="http://www.w3.org/2000/svg">
<path d="M16.7107 12.7143C16.7107 14.76 15.0421 16.4286 12.9964 16.4286C10.9506 16.4286 9.28209 14.76 9.28209 12.7143C9.28209 10.6685 10.9506 9 12.9964 9C15.0421 9 16.7107 10.6685 16.7107 12.7143ZM18.7129 12.7143C18.7129 9.55134 16.1593 6.99777 12.9964 6.99777C9.83343 6.99777 7.27986 9.55134 7.27986 12.7143C7.27986 15.8772 9.83343 18.4308 12.9964 18.4308C16.1593 18.4308 18.7129 15.8772 18.7129 12.7143ZM20.2799 6.76562C20.2799 6.02567 19.685 5.4308 18.945 5.4308C18.2051 5.4308 17.6102 6.02567 17.6102 6.76562C17.6102 7.50558 18.2051 8.10045 18.945 8.10045C19.685 8.10045 20.2799 7.50558 20.2799 6.76562ZM12.9964 3.57366C14.6214 3.57366 18.1035 3.44308 19.5689 4.02344C20.0767 4.22656 20.454 4.47321 20.8457 4.86495C21.2374 5.2567 21.4841 5.63393 21.6872 6.14174C22.2676 7.60714 22.137 11.0893 22.137 12.7143C22.137 14.3393 22.2676 17.8214 21.6872 19.2868C21.4841 19.7946 21.2374 20.1719 20.8457 20.5636C20.454 20.9554 20.0767 21.202 19.5689 21.4051C18.1035 21.9855 14.6214 21.8549 12.9964 21.8549C11.3714 21.8549 7.88923 21.9855 6.42383 21.4051C5.91602 21.202 5.53878 20.9554 5.14704 20.5636C4.7553 20.1719 4.50865 19.7946 4.30552 19.2868C3.72517 17.8214 3.85575 14.3393 3.85575 12.7143C3.85575 11.0893 3.72517 7.60714 4.30552 6.14174C4.50865 5.63393 4.7553 5.2567 5.14704 4.86495C5.53878 4.47321 5.91602 4.22656 6.42383 4.02344C7.88923 3.44308 11.3714 3.57366 12.9964 3.57366ZM24.1392 12.7143C24.1392 11.1763 24.1537 9.6529 24.0667 8.11495C23.9796 6.33036 23.5734 4.74888 22.2676 3.44308C20.9618 2.13728 19.3803 1.73103 17.5957 1.64397C16.0578 1.55692 14.5343 1.57143 12.9964 1.57143C11.4584 1.57143 9.93499 1.55692 8.39704 1.64397C6.61244 1.73103 5.03097 2.13728 3.72517 3.44308C2.41936 4.74888 2.01311 6.33036 1.92606 8.11495C1.83901 9.6529 1.85352 11.1763 1.85352 12.7143C1.85352 14.2522 1.83901 15.7757 1.92606 17.3136C2.01311 19.0982 2.41936 20.6797 3.72517 21.9855C5.03097 23.2913 6.61244 23.6975 8.39704 23.7846C9.93499 23.8717 11.4584 23.8571 12.9964 23.8571C14.5343 23.8571 16.0578 23.8717 17.5957 23.7846C19.3803 23.6975 20.9618 23.2913 22.2676 21.9855C23.5734 20.6797 23.9796 19.0982 24.0667 17.3136C24.1537 15.7757 24.1392 14.2522 24.1392 12.7143Z" fill="#414142"/>
</svg>
