<svg width="501" height="58" viewBox="0 0 501 58" fill="none" xmlns="http://www.w3.org/2000/svg">
<path d="M0.564453 43V41.7256L4.92578 41.4424V4.14453L0.564453 3.86133V2.58691H16.5371V3.86133L12.1758 4.14453V21.3633H12.2324L28.29 4.14453L24.6367 3.86133V2.58691H33.8125V3.86133L30.499 4.14453L17.3301 18.0498L35.3135 41.4424L38.3721 41.7256V43H22.2012V41.7256L25.8545 41.4424L12.2324 22.8359H12.1758V41.4424L16.5371 41.7256V43H0.564453ZM39.25 16.832V15.6709L45.1689 15.0479L49.1621 14L49.6719 14.8213V41.5557L52.5889 41.8389V43H39.8164V41.8389L42.7334 41.5557V16.832H39.25ZM42.3369 3.94629C42.3369 3.41764 42.4313 2.92676 42.6201 2.47363C42.8278 2.02051 43.1016 1.62402 43.4414 1.28418C43.7812 0.944336 44.1777 0.680013 44.6309 0.491211C45.084 0.302409 45.5654 0.208008 46.0752 0.208008C46.585 0.208008 47.0664 0.311849 47.5195 0.519531C47.9727 0.708333 48.3691 0.972656 48.709 1.3125C49.0677 1.65234 49.3415 2.04883 49.5303 2.50195C49.738 2.95508 49.8418 3.43652 49.8418 3.94629C49.8418 4.45605 49.738 4.9375 49.5303 5.39062C49.3415 5.84375 49.0771 6.24967 48.7373 6.6084C48.3975 6.94824 48.001 7.22201 47.5479 7.42969C47.0947 7.61849 46.6038 7.71289 46.0752 7.71289C45.5465 7.71289 45.0557 7.61849 44.6025 7.42969C44.1494 7.22201 43.7529 6.94824 43.4131 6.6084C43.0732 6.26855 42.8089 5.87207 42.6201 5.41895C42.4313 4.96582 42.3369 4.47493 42.3369 3.94629ZM54.373 15.7842V14.5664H59.1875V8.30762L61.623 8.05273L65.6162 7.00488L66.1543 7.82617V14.5664H72.3564V15.7842L66.1543 16.0391V35.9766C66.1543 37.1283 66.2865 38.0911 66.5508 38.8652C66.834 39.6204 67.1927 40.1396 67.627 40.4229C68.0801 40.7061 68.4388 40.8854 68.7031 40.9609C68.9863 41.0365 69.279 41.0742 69.5811 41.0742C70.1663 41.0742 70.7233 40.9515 71.252 40.7061C71.7995 40.4417 72.2904 40.0641 72.7246 39.5732C73.1777 39.0824 73.5459 38.6387 73.8291 38.2422C74.1123 37.8268 74.4333 37.3265 74.792 36.7412L76.0098 37.4775C75.0091 39.139 74.1406 40.3473 73.4043 41.1025C71.6107 42.9339 69.5433 43.8496 67.2021 43.8496C66.3148 43.8496 65.5218 43.7835 64.8232 43.6514C64.1436 43.5381 63.4355 43.2832 62.6992 42.8867C61.9629 42.4902 61.3493 41.9616 60.8584 41.3008C60.3675 40.6211 59.9616 39.696 59.6406 38.5254C59.3385 37.3359 59.1875 35.9482 59.1875 34.3623V16.0391L54.373 15.7842ZM77.8789 28.9531C77.8789 27.556 78.0394 26.1589 78.3604 24.7617C78.6813 23.3646 79.1911 22.0052 79.8896 20.6836C80.6071 19.3431 81.4661 18.1631 82.4668 17.1436C83.4863 16.1051 84.7419 15.2744 86.2334 14.6514C87.7249 14.0283 89.3486 13.7168 91.1045 13.7168C93.7288 13.7168 95.9001 14.4531 97.6182 15.9258C99.3551 17.3984 100.224 19.1543 100.224 21.1934C100.224 22.2129 99.9027 23.0814 99.2607 23.7988C98.6188 24.4974 97.7409 24.8467 96.627 24.8467C95.5885 24.8467 94.7389 24.5163 94.0781 23.8555C93.4173 23.1947 93.0869 22.3639 93.0869 21.3633C93.0869 20.4193 93.389 19.6074 93.9932 18.9277C94.6162 18.248 95.4092 17.9082 96.3721 17.9082C96.5042 17.9082 96.7402 17.9271 97.0801 17.9648V17.8232C96.8535 17.4456 96.5798 17.0964 96.2588 16.7754C95.9567 16.4355 95.4281 16.0768 94.6729 15.6992C93.9176 15.3216 93.0775 15.1328 92.1523 15.1328C90.4909 15.1328 89.1221 15.7559 88.0459 17.002C86.9697 18.248 86.2145 19.8623 85.7803 21.8447C85.346 23.8083 85.1289 26.14 85.1289 28.8398C85.1289 37.5436 87.4512 41.8955 92.0957 41.8955C92.6999 41.8955 93.2568 41.8483 93.7666 41.7539C94.2952 41.6406 94.9089 41.4329 95.6074 41.1309C96.3249 40.8288 97.0329 40.319 97.7314 39.6016C98.43 38.8841 99.1003 37.9779 99.7422 36.8828L100.847 37.5342C98.5244 41.7445 95.2015 43.8496 90.8779 43.8496C82.2119 43.8496 77.8789 38.8841 77.8789 28.9531ZM103.537 4.82422V3.66309L109.456 3.04004L113.449 1.99219L113.846 2.81348V18.6445H113.959C116.206 15.3594 119.113 13.7168 122.682 13.7168C123.361 13.7168 124.013 13.7734 124.636 13.8867C125.259 14 125.948 14.2549 126.703 14.6514C127.458 15.0479 128.11 15.5671 128.657 16.209C129.205 16.8509 129.667 17.7666 130.045 18.9561C130.423 20.1455 130.611 21.5332 130.611 23.1191V41.5557L133.5 41.8389V43H120.756V41.8389L123.645 41.5557V22.2979C123.645 18.2764 122.351 16.2656 119.765 16.2656C118.065 16.2656 116.668 17.0397 115.573 18.5879C114.497 20.1361 113.959 22.1657 113.959 24.6768V41.5557L116.876 41.8389V43H104.104V41.8389L107.021 41.5557V4.82422H103.537ZM137.238 28.7832C137.238 27.3105 137.38 25.8757 137.663 24.4785C137.946 23.0625 138.409 21.7031 139.051 20.4004C139.693 19.0977 140.476 17.9554 141.401 16.9736C142.326 15.9919 143.469 15.2083 144.828 14.623C146.206 14.0189 147.726 13.7168 149.388 13.7168C150.955 13.7168 152.361 13.9434 153.607 14.3965C154.854 14.8307 155.892 15.4443 156.723 16.2373C157.553 17.0303 158.243 18.0026 158.79 19.1543C159.338 20.2871 159.725 21.5238 159.951 22.8643C160.197 24.1859 160.319 25.6396 160.319 27.2256L159.555 27.9336H144.488V29.6611C144.488 37.8929 146.829 42.0088 151.512 42.0088C154.835 42.0088 157.487 40.3473 159.47 37.0244L160.574 37.7041C158.139 41.8011 154.674 43.8496 150.181 43.8496C145.838 43.8496 142.591 42.5091 140.438 39.8281C138.305 37.1471 137.238 33.4655 137.238 28.7832ZM144.488 26.6592L153.636 26.291C153.692 25.3281 153.721 24.403 153.721 23.5156C153.721 20.778 153.39 18.6729 152.729 17.2002C152.088 15.7275 151.011 14.9912 149.501 14.9912C148.595 14.9912 147.811 15.2933 147.15 15.8975C146.508 16.4827 146.008 17.3324 145.649 18.4463C145.291 19.5602 145.017 20.778 144.828 22.0996C144.658 23.4023 144.545 24.9222 144.488 26.6592ZM164.341 15.6709L170.26 15.0479L174.253 14L174.763 14.8213L174.649 18.6445H174.763C177.009 15.3594 179.917 13.7168 183.485 13.7168C184.165 13.7168 184.816 13.7734 185.439 13.8867C186.062 14 186.752 14.2549 187.507 14.6514C188.262 15.0479 188.913 15.5671 189.461 16.209C190.008 16.8509 190.471 17.7666 190.849 18.9561C191.226 20.1455 191.415 21.5332 191.415 23.1191V41.5557L194.304 41.8389V43H181.56V41.8389L184.448 41.5557V22.2979C184.448 18.2764 183.155 16.2656 180.568 16.2656C178.869 16.2656 177.472 17.0397 176.377 18.5879C175.301 20.1361 174.763 22.1657 174.763 24.6768V41.5557L177.68 41.8389V43H164.907V41.8389L167.824 41.5557V16.7754L164.397 16.832L164.341 15.6709ZM211.636 23.5156C211.636 21.4199 211.862 19.3525 212.315 17.3135C212.769 15.2744 213.486 13.3014 214.468 11.3945C215.468 9.48763 216.686 7.81673 218.121 6.38184C219.556 4.92806 221.331 3.76693 223.445 2.89844C225.56 2.02995 227.882 1.5957 230.412 1.5957C233.357 1.5957 235.953 2.40755 238.2 4.03125C240.447 5.63607 241.57 7.54297 241.57 9.75195C241.57 10.8659 241.212 11.8193 240.494 12.6123C239.796 13.4053 238.833 13.8018 237.605 13.8018C236.435 13.8018 235.481 13.443 234.745 12.7256C234.009 11.9893 233.641 11.0641 233.641 9.9502C233.641 8.85514 233.99 7.93945 234.688 7.20312C235.387 6.44792 236.256 6.07031 237.294 6.07031C237.502 6.07031 237.653 6.07975 237.747 6.09863V5.98535C237.464 5.45671 236.699 4.86198 235.453 4.20117C234.207 3.54036 232.706 3.20996 230.95 3.20996C227.514 3.20996 224.691 4.99414 222.482 8.5625C220.273 12.1309 219.169 16.8415 219.169 22.6943C219.169 25.2054 219.386 27.5843 219.82 29.8311C220.255 32.0589 220.896 34.0885 221.746 35.9199C222.615 37.7513 223.776 39.2145 225.229 40.3096C226.683 41.3857 228.345 41.9238 230.214 41.9238C232.895 41.9238 235.227 41.1309 237.209 39.5449C239.21 37.9401 240.758 35.8916 241.854 33.3994L243.185 34.0225C240.485 40.6683 235.944 43.9912 229.562 43.9912C226.787 43.9912 224.333 43.6042 222.199 42.8301C220.066 42.056 218.338 41.0365 217.017 39.7715C215.714 38.4876 214.647 36.9395 213.816 35.127C212.986 33.3145 212.41 31.4736 212.089 29.6045C211.787 27.7354 211.636 25.7057 211.636 23.5156ZM246.3 28.9531C246.3 26.1022 246.847 23.5156 247.942 21.1934C249.056 18.8711 250.604 17.0492 252.587 15.7275C254.588 14.387 256.844 13.7168 259.355 13.7168C261.432 13.7168 263.301 14.151 264.963 15.0195C266.643 15.8691 267.984 17.0114 268.984 18.4463C270.004 19.8812 270.778 21.486 271.307 23.2607C271.854 25.0166 272.128 26.8574 272.128 28.7832C272.128 31.5586 271.599 34.0885 270.542 36.373C269.485 38.6576 267.965 40.4795 265.982 41.8389C264.019 43.1794 261.791 43.8496 259.299 43.8496C257.09 43.8496 255.136 43.4626 253.437 42.6885C251.756 41.8955 250.397 40.8099 249.358 39.4316C248.339 38.0345 247.574 36.458 247.064 34.7021C246.555 32.9463 246.3 31.0299 246.3 28.9531ZM253.55 28.6133C253.55 30.709 253.654 32.5876 253.861 34.249C254.069 35.8916 254.39 37.3548 254.824 38.6387C255.258 39.9036 255.844 40.876 256.58 41.5557C257.316 42.2354 258.185 42.5752 259.186 42.5752C262.98 42.5752 264.878 38.0345 264.878 28.9531C264.878 26.6686 264.784 24.7051 264.595 23.0625C264.425 21.4199 264.123 19.9756 263.688 18.7295C263.273 17.4645 262.688 16.5299 261.933 15.9258C261.177 15.3027 260.262 14.9912 259.186 14.9912C258.185 14.9912 257.316 15.3311 256.58 16.0107C255.844 16.6904 255.258 17.6533 254.824 18.8994C254.39 20.1455 254.069 21.571 253.861 23.1758C253.654 24.7806 253.55 26.5931 253.55 28.6133ZM276.008 16.832V15.6709L281.927 15.0479L285.92 14L286.316 14.8213V18.6445H286.43C288.676 15.3594 291.386 13.7168 294.558 13.7168C295.218 13.7168 295.86 13.7923 296.483 13.9434C297.106 14.0755 297.758 14.321 298.438 14.6797C299.136 15.0195 299.769 15.5671 300.335 16.3223C300.901 17.0586 301.345 17.9554 301.666 19.0127H301.723C304.253 15.4821 307.198 13.7168 310.559 13.7168C311.219 13.7168 311.861 13.7829 312.484 13.915C313.107 14.0283 313.778 14.2926 314.495 14.708C315.231 15.1234 315.864 15.6615 316.393 16.3223C316.921 16.9831 317.365 17.9176 317.724 19.126C318.082 20.3154 318.262 21.7031 318.262 23.2891V41.5557L321.179 41.8389V43H308.406V41.8389L311.295 41.5557V22.2979C311.295 21.1839 311.191 20.2305 310.983 19.4375C310.795 18.6257 310.568 18.0215 310.304 17.625C310.058 17.2285 309.747 16.9264 309.369 16.7188C308.992 16.4922 308.689 16.36 308.463 16.3223C308.236 16.2845 307.981 16.2656 307.698 16.2656C306.433 16.2656 305.197 16.9642 303.988 18.3613C302.799 19.7585 302.204 21.6748 302.204 24.1104V41.5557L305.121 41.8389V43H292.349V41.8389L295.237 41.5557V22.2979C295.237 21.1839 295.143 20.2305 294.954 19.4375C294.765 18.6257 294.539 18.0215 294.274 17.625C294.029 17.2285 293.717 16.9264 293.34 16.7188C292.981 16.4922 292.688 16.36 292.462 16.3223C292.235 16.2845 291.98 16.2656 291.697 16.2656C290.489 16.2656 289.309 17.0775 288.157 18.7012C287.006 20.3249 286.43 22.3167 286.43 24.6768V41.5557L289.347 41.8389V43H276.574V41.8389L279.491 41.5557V16.832H276.008ZM324.152 16.832V15.6709L330.071 15.0479L334.064 14L334.461 14.8213V18.6445H334.574C336.821 15.3594 339.53 13.7168 342.702 13.7168C343.363 13.7168 344.005 13.7923 344.628 13.9434C345.251 14.0755 345.902 14.321 346.582 14.6797C347.281 15.0195 347.913 15.5671 348.479 16.3223C349.046 17.0586 349.49 17.9554 349.811 19.0127H349.867C352.397 15.4821 355.342 13.7168 358.703 13.7168C359.364 13.7168 360.006 13.7829 360.629 13.915C361.252 14.0283 361.922 14.2926 362.64 14.708C363.376 15.1234 364.008 15.6615 364.537 16.3223C365.066 16.9831 365.509 17.9176 365.868 19.126C366.227 20.3154 366.406 21.7031 366.406 23.2891V41.5557L369.323 41.8389V43H356.551V41.8389L359.439 41.5557V22.2979C359.439 21.1839 359.336 20.2305 359.128 19.4375C358.939 18.6257 358.713 18.0215 358.448 17.625C358.203 17.2285 357.891 16.9264 357.514 16.7188C357.136 16.4922 356.834 16.36 356.607 16.3223C356.381 16.2845 356.126 16.2656 355.843 16.2656C354.578 16.2656 353.341 16.9642 352.133 18.3613C350.943 19.7585 350.349 21.6748 350.349 24.1104V41.5557L353.266 41.8389V43H340.493V41.8389L343.382 41.5557V22.2979C343.382 21.1839 343.287 20.2305 343.099 19.4375C342.91 18.6257 342.683 18.0215 342.419 17.625C342.174 17.2285 341.862 16.9264 341.484 16.7188C341.126 16.4922 340.833 16.36 340.606 16.3223C340.38 16.2845 340.125 16.2656 339.842 16.2656C338.633 16.2656 337.453 17.0775 336.302 18.7012C335.15 20.3249 334.574 22.3167 334.574 24.6768V41.5557L337.491 41.8389V43H324.719V41.8389L327.636 41.5557V16.832H324.152ZM371.674 16.832V15.6709L377.593 15.0479L381.586 14L382.124 14.8213V35.2686C382.124 36.3825 382.237 37.3359 382.464 38.1289C382.709 38.9219 382.974 39.5166 383.257 39.9131C383.559 40.2907 383.927 40.5928 384.361 40.8193C384.814 41.027 385.164 41.1497 385.409 41.1875C385.655 41.2064 385.928 41.2158 386.23 41.2158C387.552 41.2158 388.76 40.3851 389.855 38.7236C390.969 37.0433 391.526 34.9854 391.526 32.5498V16.832H388.043V15.6709L393.962 15.0479L397.955 14L398.465 14.8213V41.5557L401.382 41.8389V43H392.489L391.64 38.6387H391.526C391.035 39.3561 390.573 39.9697 390.139 40.4795C389.704 40.9704 389.157 41.5085 388.496 42.0938C387.835 42.6602 387.071 43.0944 386.202 43.3965C385.353 43.6986 384.437 43.8496 383.455 43.8496C382.775 43.8496 382.115 43.793 381.473 43.6797C380.831 43.5664 380.104 43.321 379.292 42.9434C378.499 42.5469 377.81 42.0277 377.225 41.3857C376.658 40.7249 376.167 39.8092 375.752 38.6387C375.355 37.4492 375.157 36.0615 375.157 34.4756V16.832H371.674ZM404.61 15.6709L410.529 15.0479L414.522 14L415.032 14.8213L414.919 18.6445H415.032C417.279 15.3594 420.187 13.7168 423.755 13.7168C424.435 13.7168 425.086 13.7734 425.709 13.8867C426.332 14 427.021 14.2549 427.776 14.6514C428.532 15.0479 429.183 15.5671 429.73 16.209C430.278 16.8509 430.741 17.7666 431.118 18.9561C431.496 20.1455 431.685 21.5332 431.685 23.1191V41.5557L434.573 41.8389V43H421.829V41.8389L424.718 41.5557V22.2979C424.718 18.2764 423.424 16.2656 420.838 16.2656C419.139 16.2656 417.742 17.0397 416.646 18.5879C415.57 20.1361 415.032 22.1657 415.032 24.6768V41.5557L417.949 41.8389V43H405.177V41.8389L408.094 41.5557V16.7754L404.667 16.832L404.61 15.6709ZM437.604 16.832V15.6709L443.522 15.0479L447.516 14L448.025 14.8213V41.5557L450.942 41.8389V43H438.17V41.8389L441.087 41.5557V16.832H437.604ZM440.69 3.94629C440.69 3.41764 440.785 2.92676 440.974 2.47363C441.181 2.02051 441.455 1.62402 441.795 1.28418C442.135 0.944336 442.531 0.680013 442.984 0.491211C443.438 0.302409 443.919 0.208008 444.429 0.208008C444.938 0.208008 445.42 0.311849 445.873 0.519531C446.326 0.708333 446.723 0.972656 447.062 1.3125C447.421 1.65234 447.695 2.04883 447.884 2.50195C448.091 2.95508 448.195 3.43652 448.195 3.94629C448.195 4.45605 448.091 4.9375 447.884 5.39062C447.695 5.84375 447.431 6.24967 447.091 6.6084C446.751 6.94824 446.354 7.22201 445.901 7.42969C445.448 7.61849 444.957 7.71289 444.429 7.71289C443.9 7.71289 443.409 7.61849 442.956 7.42969C442.503 7.22201 442.106 6.94824 441.767 6.6084C441.427 6.26855 441.162 5.87207 440.974 5.41895C440.785 4.96582 440.69 4.47493 440.69 3.94629ZM452.727 15.7842V14.5664H457.541V8.30762L459.977 8.05273L463.97 7.00488L464.508 7.82617V14.5664H470.71V15.7842L464.508 16.0391V35.9766C464.508 37.1283 464.64 38.0911 464.904 38.8652C465.188 39.6204 465.546 40.1396 465.98 40.4229C466.434 40.7061 466.792 40.8854 467.057 40.9609C467.34 41.0365 467.632 41.0742 467.935 41.0742C468.52 41.0742 469.077 40.9515 469.605 40.7061C470.153 40.4417 470.644 40.0641 471.078 39.5732C471.531 39.0824 471.899 38.6387 472.183 38.2422C472.466 37.8268 472.787 37.3265 473.146 36.7412L474.363 37.4775C473.363 39.139 472.494 40.3473 471.758 41.1025C469.964 42.9339 467.897 43.8496 465.556 43.8496C464.668 43.8496 463.875 43.7835 463.177 43.6514C462.497 43.5381 461.789 43.2832 461.053 42.8867C460.316 42.4902 459.703 41.9616 459.212 41.3008C458.721 40.6211 458.315 39.696 457.994 38.5254C457.692 37.3359 457.541 35.9482 457.541 34.3623V16.0391L452.727 15.7842ZM475.411 52.8271C475.411 51.7132 475.742 50.7786 476.402 50.0234C477.082 49.2682 477.932 48.8906 478.951 48.8906C480.046 48.8906 480.868 49.2305 481.415 49.9102C481.981 50.5898 482.265 51.43 482.265 52.4307C482.265 52.8083 482.142 53.2614 481.896 53.79C481.67 54.3187 481.368 54.7152 480.99 54.9795V55.0928C481.651 55.0739 482.274 54.8379 482.859 54.3848C483.445 53.9505 483.973 53.318 484.445 52.4873C484.917 51.6566 485.276 50.958 485.521 50.3916C485.767 49.8252 486.05 49.1172 486.371 48.2676L487.646 43.9629L475.609 16.0391L472.806 15.7275V14.5664H486.201V15.7275L483.143 16.0391L490.506 34.5039L496.057 16.0391L492.941 15.7275V14.5664H500.645V15.7275L497.699 16.0391L488.297 47.8711C487.636 49.7969 486.956 51.4017 486.258 52.6855C485.559 53.9694 484.851 54.904 484.134 55.4893C483.435 56.0934 482.784 56.4993 482.18 56.707C481.576 56.9147 480.905 57.0186 480.169 57.0186C478.753 57.0186 477.601 56.6221 476.714 55.8291C475.845 55.0361 475.411 54.0355 475.411 52.8271Z" fill="black"/>
</svg>
