<svg width="26" height="27" viewBox="0 0 26 27" fill="none" xmlns="http://www.w3.org/2000/svg">
<path d="M15.9417 18.7634C15.9417 18.125 15.7531 17.7913 15.3758 17.7913C15.1582 17.7913 14.9406 17.8929 14.7229 18.1105V22.4777C14.9406 22.6953 15.1582 22.7969 15.3758 22.7969C15.7531 22.7969 15.9417 22.4777 15.9417 21.8248V18.7634ZM20.8457 18.7779C20.8457 18.125 20.6281 17.7913 20.1928 17.7913C19.7575 17.7913 19.5399 18.125 19.5399 18.7779V19.4453H20.8457V18.7779ZM6.83008 15.615V23.8705H5.37919V15.615H3.85575V14.2511H8.38253V15.615H6.83008ZM11.0086 23.8705V23.0871C10.4863 23.6819 9.99302 23.9721 9.52874 23.9721C9.10798 23.9721 8.80329 23.798 8.68722 23.4353C8.61468 23.2176 8.57115 22.8839 8.57115 22.3761V16.7031H9.86244V21.9844C9.86244 22.2891 9.86244 22.4487 9.87695 22.4922C9.90597 22.6953 10.0075 22.7969 10.1816 22.7969C10.4428 22.7969 10.7185 22.5938 11.0086 22.1875V16.7031H12.2999V23.8705H11.0086ZM17.233 21.7232C17.233 22.3906 17.204 22.8694 17.1024 23.1741C16.9428 23.6964 16.5801 23.9721 16.0723 23.9721C15.608 23.9721 15.1582 23.7109 14.7229 23.1741V23.8705H13.4316V14.2511H14.7229V17.3996C15.1437 16.8772 15.5935 16.6161 16.0723 16.6161C16.5801 16.6161 16.9428 16.8917 17.1024 17.4286C17.204 17.7187 17.233 18.1975 17.233 18.865V21.7232ZM22.137 21.5781C22.137 21.9989 22.137 22.2891 22.108 22.4196C22.079 22.7098 21.9629 22.971 21.8033 23.2031C21.4551 23.7109 20.9182 23.9721 20.2363 23.9721C19.5544 23.9721 19.0466 23.7254 18.6694 23.2321C18.3937 22.8839 18.2486 22.3181 18.2486 21.5491V19.0391C18.2486 18.2701 18.3792 17.7187 18.6549 17.356C19.0321 16.8627 19.5399 16.6161 20.2073 16.6161C20.8602 16.6161 21.368 16.8627 21.7453 17.356C22.0064 17.7187 22.137 18.2701 22.137 19.0391V20.5335H19.5399V21.7958C19.5399 22.4632 19.7575 22.7969 20.2073 22.7969C20.5265 22.7969 20.7151 22.6228 20.7877 22.2746C20.8022 22.202 20.8167 21.9118 20.8167 21.3895H22.137V21.5781ZM13.3156 8.33147C13.3156 8.99888 13.127 9.3471 12.6917 9.3471C12.2709 9.3471 12.0678 8.99888 12.0678 8.33147V5.2846C12.0678 4.61719 12.2709 4.28348 12.6917 4.28348C13.127 4.28348 13.3156 4.61719 13.3156 5.2846V8.33147ZM23.7475 19.2277C23.7475 17.5446 23.7475 15.7746 23.3703 14.1496C23.1091 13.0033 22.166 12.1618 21.0488 12.0312C18.3792 11.7411 15.6805 11.7411 12.9964 11.7411C10.3122 11.7411 7.61356 11.7411 4.95843 12.0312C3.82673 12.1618 2.89816 13.0033 2.62249 14.1496C2.25977 15.7746 2.24526 17.5446 2.24526 19.2277C2.24526 20.8962 2.24526 22.6808 2.62249 24.3058C2.88365 25.452 3.82673 26.2935 4.94392 26.4096C7.61356 26.7143 10.3122 26.7143 12.9964 26.7143C15.6805 26.7143 18.3792 26.7143 21.0488 26.4096C22.166 26.2935 23.0946 25.452 23.3703 24.3058C23.733 22.6808 23.7475 20.8962 23.7475 19.2277ZM9.26758 0.714284L8.28097 4.53013L7.25084 0.714284H5.71289C6.01758 1.61384 6.33677 2.5279 6.65597 3.42745C7.12026 4.77679 7.41044 5.79241 7.54102 6.50335V10.4353H8.99191V6.50335L10.7475 0.714284H9.26758ZM14.6359 5.54576C14.6359 4.77679 14.5053 4.21094 14.2296 3.84821C13.8669 3.35491 13.3591 3.10826 12.6917 3.10826C12.0388 3.10826 11.531 3.35491 11.1682 3.84821C10.8926 4.21094 10.762 4.77679 10.762 5.54576V8.08482C10.762 8.85379 10.8926 9.41964 11.1682 9.79688C11.531 10.2902 12.0388 10.5368 12.6917 10.5368C13.3591 10.5368 13.8669 10.2902 14.2296 9.79688C14.5053 9.43415 14.6359 8.85379 14.6359 8.08482V5.54576ZM19.4964 3.19531H18.1761V8.72321C17.8859 9.14397 17.6102 9.3471 17.3491 9.3471C17.1749 9.3471 17.0734 9.23103 17.0444 9.0279C17.0299 8.99888 17.0299 8.82478 17.0299 8.52009V3.19531H15.7095V8.91183C15.7095 9.43415 15.7531 9.78236 15.8256 10C15.9562 10.3627 16.2609 10.5368 16.6816 10.5368C17.1604 10.5368 17.6537 10.2467 18.1761 9.63728V10.4353H19.4964V3.19531Z" fill="#414142"/>
</svg>
